<svg xmlns="http://www.w3.org/2000/svg" width="55" height="55" viewBox="0 0 55 55" fill="none"><circle cx="27.7383" cy="27.0767" r="27" fill="url(#paint0_linear_64_2912)"></circle><g clip-path="url(#clip0_64_2912)"><path d="M25.1134 40.0763C25.1322 40.0627 25.151 40.0491 25.1792 40.0321C24.9188 39.903 24.8561 39.6618 24.8529 39.39C24.8498 39.0435 24.8529 38.697 24.8529 38.3504C24.8529 35.2384 24.8529 32.1231 24.8529 29.0111C24.8529 28.9737 24.8529 28.9363 24.8529 28.8956C24.8592 28.814 24.8215 28.7835 24.7462 28.7835C24.5705 28.7835 24.3948 28.7835 24.2191 28.7835C23.4911 28.7835 22.7663 28.7835 22.0383 28.7835C21.9379 28.7835 21.8343 28.7767 21.7339 28.7631C21.4201 28.7189 21.2444 28.5151 21.2381 28.1685C21.2319 27.8084 21.2381 27.4483 21.2381 27.0916C21.2381 26.1301 21.2381 25.1721 21.2381 24.2106C21.2381 24.1596 21.2381 24.1087 21.2381 24.0577C21.2507 23.6399 21.4547 23.4156 21.8437 23.4156C22.7851 23.4156 23.7264 23.4156 24.6678 23.4156C24.8498 23.4156 24.8498 23.4156 24.8498 23.2254C24.8498 22.3455 24.8435 21.4655 24.8498 20.5856C24.8592 19.6276 24.9722 18.6865 25.2953 17.7896C25.9637 15.9516 27.1906 14.8033 28.9509 14.3039C29.5283 14.1374 30.1182 14.0865 30.7144 14.0797C31.6589 14.0729 32.6065 14.0797 33.551 14.0797C33.6043 14.0797 33.6608 14.0797 33.7141 14.0865C34.075 14.1408 34.235 14.3413 34.235 14.7625C34.235 15.9177 34.235 17.0728 34.235 18.2279C34.235 18.3841 34.2507 18.5404 34.2193 18.6967C34.1754 18.9311 34.0248 19.0908 33.8083 19.1214C33.7173 19.135 33.6231 19.1417 33.529 19.1417C32.8167 19.1451 32.1076 19.1417 31.3953 19.1519C31.1474 19.1519 30.9058 19.1893 30.6704 19.2844C30.2657 19.4441 30.024 19.828 29.9864 20.2968C29.9079 21.2889 29.9613 22.2843 29.9393 23.2763C29.9393 23.3952 29.9707 23.4258 30.0774 23.4258C31.2227 23.4224 32.368 23.4258 33.5102 23.4258C33.7455 23.4258 33.9306 23.5108 34.0342 23.752C34.075 23.8437 34.0875 23.9456 34.0875 24.0475C34.0875 25.3895 34.0875 26.7281 34.0875 28.07C34.0875 28.2093 34.0781 28.352 34.0185 28.4777C33.9055 28.7189 33.7016 28.7903 33.4694 28.7936C32.7728 28.7936 32.0793 28.7936 31.3827 28.7936C30.9528 28.7936 30.523 28.7936 30.0931 28.7936C29.9393 28.7936 29.9393 28.7936 29.9393 28.9635C29.9393 31.7663 29.9393 34.5726 29.9393 37.3754C29.9393 38.0175 29.9393 38.6596 29.9393 39.3051C29.9393 39.5973 29.9111 39.8758 29.6381 40.0389C29.6287 40.0423 29.6318 40.0695 29.6287 40.0831C28.1194 40.0831 26.6132 40.0831 25.1039 40.0831L25.1134 40.0763Z" fill="white"></path></g><defs><linearGradient id="paint0_linear_64_2912" x1="27.7383" y1="0.0766602" x2="27.7383" y2="54.0767" gradientUnits="userSpaceOnUse"><stop stop-color="#EF5F5F"></stop><stop offset="1" stop-color="#AE1919"></stop></linearGradient><clipPath id="clip0_64_2912"><rect width="13" height="26" fill="white" transform="translate(21.2383 14.0767)"></rect></clipPath></defs></svg>