<svg xmlns="http://www.w3.org/2000/svg" width="55" height="55" viewBox="0 0 55 55" fill="none"><path d="M54.7383 27.0767C54.7383 41.9883 42.65 54.0767 27.7383 54.0767C12.8266 54.0767 0.738281 41.9883 0.738281 27.0767C0.738281 12.165 12.8266 0.0766602 27.7383 0.0766602C42.65 0.0766602 54.7383 12.165 54.7383 27.0767Z" fill="url(#paint0_linear_64_2913)"></path><path d="M23.8627 38.5751C23.8627 38.2345 23.8544 37.8939 23.8652 37.5542C23.8977 36.5397 23.8702 35.5244 23.8819 34.5099C23.9135 31.7789 23.8985 29.0488 23.9044 26.3178C23.906 25.5501 23.9027 24.7824 23.896 24.0139C23.8935 23.7303 23.8769 23.4474 23.8627 23.1645C23.8585 23.0804 23.8835 23.0427 23.9777 23.0435C24.3285 23.0467 24.6793 23.0435 25.0293 23.0435C26.3592 23.0435 27.6883 23.0435 29.0182 23.0435C29.0565 23.0435 29.0949 23.0467 29.1324 23.0435C29.2198 23.0371 29.2457 23.0772 29.2448 23.1573C29.2423 23.8048 29.2423 24.4523 29.2423 25.1006C29.2423 25.1326 29.2315 25.1663 29.2532 25.2047C29.4182 24.9659 29.5932 24.7408 29.784 24.526C30.6689 23.5323 31.7772 22.9217 33.1271 22.7382C34.3178 22.5771 35.4828 22.6805 36.5994 23.1261C37.6318 23.538 38.4501 24.2079 39.0675 25.1022C39.5883 25.8562 39.8791 26.6976 40.0575 27.5807C40.1441 28.0118 40.1625 28.4477 40.1958 28.8837C40.1966 28.8997 40.1991 28.9157 40.2024 28.9494C40.2316 28.8075 40.1925 28.6793 40.2374 28.5575C40.2374 31.8663 40.2374 35.175 40.2391 38.4837C40.2391 38.559 40.2216 38.5759 40.1433 38.5759C38.3834 38.5735 36.6227 38.5743 34.8628 38.5743C34.862 38.4813 34.8595 38.3875 34.8595 38.2946C34.8595 35.8577 34.8595 33.42 34.857 30.9832C34.857 30.5561 34.8703 30.129 34.8386 29.7018C34.8003 29.1866 34.7136 28.6817 34.5028 28.2025C34.2753 27.6857 33.9329 27.2626 33.3937 27.0174C33.0896 26.8787 32.7621 26.8202 32.428 26.7946C31.9022 26.7545 31.3922 26.8154 30.9189 27.0454C30.1831 27.4036 29.7157 27.9974 29.414 28.7186C29.2732 29.0544 29.2473 29.4134 29.2465 29.7716C29.2448 32.6163 29.2457 35.4611 29.2457 38.305C29.2457 38.3948 29.2415 38.4853 29.239 38.5751H23.8627Z" fill="white"></path><path d="M15.5508 38.5746C15.5491 37.1859 15.5474 35.7972 15.5474 34.4085C15.5474 30.7263 15.5474 27.0442 15.5466 23.3612C15.5466 23.2875 15.5466 23.2146 15.5441 23.1408C15.5416 23.0751 15.5666 23.0391 15.6408 23.0439C15.6616 23.0455 15.6824 23.0439 15.7032 23.0439C17.3873 23.0439 19.0705 23.0439 20.7546 23.0439C20.9312 23.0439 20.9337 23.0487 20.9179 23.2218C20.9121 23.2851 20.9137 23.3484 20.9137 23.4117C20.9137 28.4128 20.9137 33.414 20.9137 38.4151C20.9137 38.468 20.9096 38.5217 20.9071 38.5746H15.5508Z" fill="white"></path><path d="M19.0089 15.5767C18.9655 15.6095 18.908 15.5871 18.843 15.6159C18.9497 15.6336 19.0405 15.6448 19.1297 15.664C20.2863 15.9068 21.0812 16.7338 21.2479 17.8621C21.3454 18.5256 21.2545 19.157 20.8629 19.722C20.4163 20.3663 19.7796 20.7469 18.993 20.8871C18.3714 20.9977 17.7431 21.0081 17.1415 20.8038C16.2265 20.4929 15.5799 19.9167 15.3291 18.9839C15.3024 18.8854 15.3249 18.7836 15.2966 18.681C15.2616 18.7323 15.2799 18.798 15.2383 18.8421C15.2383 18.4479 15.2383 18.0544 15.2383 17.6601C15.2499 17.6906 15.2608 17.7202 15.2716 17.7491C15.5549 16.4613 16.4365 15.8139 17.7323 15.6039C17.6806 15.5871 17.6215 15.6079 17.5715 15.5767H19.0089Z" fill="white"></path><defs><linearGradient id="paint0_linear_64_2913" x1="27.7383" y1="0.0766602" x2="27.7383" y2="54.0767" gradientUnits="userSpaceOnUse"><stop stop-color="#EF5F5F"></stop><stop offset="1" stop-color="#A61010"></stop></linearGradient></defs></svg>